# Blender v2.78 (sub 0) OBJ File: ''
# www.blender.org
mtllib sword.mtl
o svard_sword_Cube
v 6.843962 -0.092762 -0.346274
v 7.727537 -0.092762 0.346274
v 0.710389 -0.092762 0.346274
v 0.710390 -0.092762 -0.346274
v 6.843964 0.092762 -0.346274
v 7.727535 0.092762 0.346274
v 0.710388 0.092762 0.346274
v 0.710389 0.092762 -0.346274
v 0.520943 -0.092763 0.346273
v 0.520944 -0.092763 -0.346274
v 0.520942 0.092761 0.346273
v 0.520944 0.092761 -0.346274
v 0.710389 -0.092762 0.835447
v 0.710388 0.092762 0.835447
v 0.710390 -0.092762 -0.835446
v 0.710389 0.092762 -0.835446
v 0.520943 -0.092763 0.835446
v 0.520942 0.092761 0.835446
v 0.520944 -0.092763 -0.835447
v 0.520944 0.092761 -0.835447
v 0.434435 -0.092763 0.176827
v 0.434436 -0.092763 -0.176828
v 0.434434 0.092761 0.176826
v 0.434435 0.092761 -0.176828
v -0.782954 -0.092768 0.112593
v -0.782953 -0.092768 -0.112604
v -0.782955 0.092756 0.112593
v -0.782954 0.092756 -0.112604
v -0.942615 -0.128503 0.155969
v -0.942613 -0.128503 -0.155982
v -0.942616 0.128490 0.155969
v -0.942614 0.128490 -0.155982
v -1.075926 -0.128504 0.155968
v -1.075924 -0.128504 -0.155983
v -1.075927 0.128490 0.155968
v -1.075925 0.128490 -0.155983
v 0.710389 -0.170181 0.346274
v 0.710390 -0.170181 -0.346274
v 0.710388 0.170181 0.346274
v 0.710389 0.170181 -0.346274
v 0.520943 -0.170182 0.346273
v 0.520944 -0.170182 -0.346274
v 0.520942 0.170180 0.346273
v 0.520944 0.170180 -0.346274
v 0.710389 0.170181 -0.835446
v 0.520944 0.170180 -0.835447
v 0.520942 0.170180 0.835446
v 0.710388 0.170181 0.835447
v 0.710390 -0.170181 -0.835446
v 0.520944 -0.170182 -0.835447
v 0.710389 -0.170181 0.835447
v 0.520943 -0.170182 0.835446
vn 0.0000 -1.0000 -0.0000
vn 0.0000 1.0000 0.0000
vn 0.6169 0.0000 -0.7870
vn -0.0000 -0.0000 1.0000
vn 0.0000 0.0000 -1.0000
vn 1.0000 0.0000 0.0000
vn -1.0000 -0.0000 0.0000
vn -0.8906 -0.0000 0.4547
vn -0.8906 -0.0000 -0.4547
vn 0.2622 0.0000 -0.9650
vn -0.0527 -0.0000 0.9986
vn -0.0527 0.0000 -0.9986
vn 0.2184 -0.9759 0.0000
vn 0.2184 0.9759 0.0000
vn 0.2622 0.0000 0.9650
usemtl Material
s off
f 1//1 2//1 3//1 4//1
f 5//2 8//2 7//2 6//2
f 1//3 5//3 6//3 2//3
f 2//4 6//4 7//4 3//4
f 18//4 14//4 48//4 47//4
f 5//5 1//5 4//5 8//5
f 11//2 12//2 24//2 23//2
f 8//6 16//6 45//6 40//6
f 16//5 20//5 46//5 45//5
f 11//7 9//7 17//7 18//7
f 16//5 15//5 19//5 20//5
f 13//4 14//4 18//4 17//4
f 8//6 4//6 15//6 16//6
f 15//6 4//6 38//6 49//6
f 10//7 12//7 20//7 19//7
f 10//7 19//7 50//7 42//7
f 12//7 11//7 43//7 44//7
f 3//6 7//6 14//6 13//6
f 23//2 24//2 28//2 27//2
f 9//8 11//8 23//8 21//8
f 12//9 10//9 22//9 24//9
f 10//1 9//1 21//1 22//1
f 28//10 26//10 30//10 32//10
f 21//11 23//11 27//11 25//11
f 24//12 22//12 26//12 28//12
f 22//1 21//1 25//1 26//1
f 32//5 30//5 34//5 36//5
f 26//13 25//13 29//13 30//13
f 27//14 28//14 32//14 31//14
f 25//15 27//15 31//15 29//15
f 33//7 35//7 36//7 34//7
f 30//1 29//1 33//1 34//1
f 31//2 32//2 36//2 35//2
f 29//4 31//4 35//4 33//4
f 39//2 40//2 44//2 43//2
f 38//1 42//1 50//1 49//1
f 38//1 37//1 41//1 42//1
f 44//2 40//2 45//2 46//2
f 41//1 37//1 51//1 52//1
f 39//2 43//2 47//2 48//2
f 20//7 12//7 44//7 46//7
f 7//6 8//6 40//6 39//6
f 19//5 15//5 49//5 50//5
f 3//6 13//6 51//6 37//6
f 9//7 10//7 42//7 41//7
f 13//4 17//4 52//4 51//4
f 4//6 3//6 37//6 38//6
f 14//6 7//6 39//6 48//6
f 17//7 9//7 41//7 52//7
f 11//7 18//7 47//7 43//7
