# Blender v2.78 (sub 0) OBJ File: 'bench.blend'
# www.blender.org
mtllib bench.mtl
o bench_Cube
v -1.500000 -0.125000 19.999996
v -1.500000 0.125000 19.999992
v -1.500000 -0.125000 19.039192
v -1.500000 0.125000 19.039188
v -1.500000 -2.464561 19.999996
v -1.500000 -2.464561 19.039192
v -1.500000 -0.125000 20.000008
v -1.500000 0.125000 20.000000
v 1.500000 -0.125000 19.999996
v 1.500000 0.125000 19.999992
v 1.500000 -0.125000 19.039192
v 1.500000 0.125000 19.039188
v 1.500000 -2.464561 19.999996
v 1.500000 -2.464561 19.039192
v 1.500000 -0.125000 20.000008
v 1.500000 0.125000 20.000000
v 0.000000 -0.125000 19.999998
v 0.000000 0.125000 20.000002
v 0.000000 0.125000 19.039198
v 0.000000 -0.125000 19.039194
v 0.000000 -2.464561 19.999998
v 0.000000 -2.464561 19.039194
v -1.500000 -0.125000 -19.999996
v -1.500000 0.125000 -19.999992
v -1.500000 -0.125000 -19.039192
v -1.500000 0.125000 -19.039188
v -1.500000 -2.464561 -19.999996
v -1.500000 -2.464561 -19.039192
v -1.500000 -0.125000 -20.000008
v -1.500000 0.125000 -20.000000
v -1.500000 -0.125000 0.000000
v -1.500000 0.125000 0.000000
v 1.500000 -0.125000 -19.999996
v 1.500000 0.125000 -19.999992
v 1.500000 -0.125000 -19.039192
v 1.500000 0.125000 -19.039188
v 1.500000 -2.464561 -19.999996
v 1.500000 -2.464561 -19.039192
v 1.500000 -0.125000 -20.000008
v 1.500000 0.125000 -20.000000
v 1.500000 -0.125000 0.000000
v 1.500000 0.125000 0.000000
v 0.000000 -0.125000 -19.999998
v 0.000000 0.125000 -20.000002
v 0.000000 0.125000 0.000000
v 0.000000 -0.125000 0.000000
v 0.000000 0.125000 -19.039198
v 0.000000 -0.125000 -19.039194
v 0.000000 -2.464561 -19.999998
v 0.000000 -2.464561 -19.039194
vt 0.8934 0.6015
vt 0.8934 0.5065
vt 1.0026 0.5065
vt 1.0026 0.6015
vt 0.1227 0.6001
vt 0.0703 0.6001
vt 0.0703 0.6866
vt 0.1227 0.6866
vt 1.4769 0.7905
vt -0.0030 0.7905
vt -0.0030 0.9985
vt 1.4769 0.9985
vt 0.0057 1.0018
vt 0.0057 0.8913
vt 1.4932 0.8913
vt 1.4932 1.0018
vt 0.1243 0.6009
vt 0.1243 0.5068
vt 0.8942 0.5068
vt 0.8942 0.6009
vt 0.0011 0.5077
vt 0.0011 0.4080
vt 0.0800 0.4080
vt 0.0800 0.5077
vt -0.1667 0.0240
vt -0.1667 0.0000
vt -0.5000 0.0000
vt -0.5000 0.0240
vt 0.9968 0.8964
vt 0.9968 0.7903
vt 0.6902 0.7903
vt 0.6902 0.8964
vt 0.0007 0.5994
vt 0.0007 0.6880
vt 0.7921 0.6880
vt 0.7921 0.5994
vt 0.9985 0.6907
vt 0.9985 0.4988
vt 0.4267 0.4988
vt 0.4267 0.6907
vt 1.0026 0.5065
vt 0.8934 0.5065
vt 0.1227 0.6866
vt 0.0703 0.6866
vt 1.4769 0.9985
vt -0.0030 0.9985
vt 0.0057 1.0018
vt 1.4932 1.0018
vt 1.4932 0.8913
vt 0.0057 0.8913
vt 0.8942 0.5068
vt 0.1243 0.5068
vt 0.0011 0.5077
vt 0.0800 0.5077
vt 0.0800 0.4080
vt 0.0011 0.4080
vt -0.5000 0.0240
vt -0.5000 0.0000
vt 0.9968 0.8964
vt 0.6902 0.8964
vt 0.6902 0.7903
vt 0.9968 0.7903
vt 0.7921 0.6880
vt 0.0007 0.6880
vt 0.9985 0.6907
vt 0.4267 0.6907
vt 0.8934 0.6015
vt 1.0026 0.6015
vt 1.0026 0.5065
vt 0.8934 0.5065
vt 0.1227 0.6001
vt 0.1227 0.6866
vt 0.0703 0.6866
vt 0.0703 0.6001
vt -0.0030 0.9985
vt -0.0030 0.7905
vt 0.0057 1.0018
vt 0.0057 0.8913
vt 0.8942 0.6009
vt 0.8942 0.5068
vt 0.0011 0.5077
vt 0.0800 0.5077
vt 0.0800 0.4080
vt 0.0011 0.4080
vt -0.1667 0.0240
vt -0.5000 0.0240
vt -0.5000 0.0000
vt -0.1667 0.0000
vt 0.9968 0.8964
vt 0.6902 0.8964
vt 0.6902 0.7903
vt 0.9968 0.7903
vt 0.0007 0.5994
vt 0.7921 0.5994
vt 0.7921 0.6880
vt 0.0007 0.6880
vt 0.9985 0.6907
vt 0.4267 0.6907
vt 0.4267 0.4988
vt 0.9985 0.4988
vt 0.8934 0.5065
vt 1.0026 0.5065
vt 0.0703 0.6866
vt 0.1227 0.6866
vt -0.0030 0.9985
vt 0.0057 1.0018
vt 0.0057 0.8913
vt 0.8942 0.5068
vt 0.0011 0.5077
vt 0.0011 0.4080
vt 0.0800 0.4080
vt 0.0800 0.5077
vt -0.5000 0.0000
vt -0.5000 0.0240
vt 0.9968 0.8964
vt 0.9968 0.7903
vt 0.6902 0.7903
vt 0.6902 0.8964
vt 0.0007 0.6880
vt 0.7921 0.6880
vt 0.9985 0.6907
vt 0.4267 0.6907
vn 0.0000 1.0000 0.0000
vn -0.0000 -0.0000 1.0000
vn 0.0000 -1.0000 0.0000
vn -1.0000 -0.0000 -0.0000
vn 0.0000 0.0000 -1.0000
vn 1.0000 -0.0000 -0.0000
usemtl Material
s off
f 19/1/1 4/2/1 2/3/1 18/4/1
f 17/5/2 18/6/2 2/7/2 1/8/2
f 46/9/3 20/10/3 3/11/3 31/12/3
f 3/13/4 4/14/4 32/15/4 31/16/4
f 45/17/1 32/18/1 4/19/1 19/20/1
f 1/21/4 2/22/4 4/23/4 3/24/4
f 22/25/3 21/26/3 5/27/3 6/28/3
f 1/29/4 3/30/4 6/31/4 5/32/4
f 17/33/2 1/34/2 5/35/2 21/36/2
f 3/37/5 20/38/5 22/39/5 6/40/5
f 19/1/1 18/4/1 10/41/1 12/42/1
f 17/5/2 9/43/2 10/44/2 18/6/2
f 46/9/3 41/45/3 11/46/3 20/10/3
f 11/47/6 41/48/6 42/49/6 12/50/6
f 45/17/1 19/20/1 12/51/1 42/52/1
f 9/53/6 11/54/6 12/55/6 10/56/6
f 22/25/3 14/57/3 13/58/3 21/26/3
f 9/59/6 13/60/6 14/61/6 11/62/6
f 17/33/2 21/36/2 13/63/2 9/64/2
f 11/65/5 14/66/5 22/39/5 20/38/5
f 47/67/1 44/68/1 24/69/1 26/70/1
f 43/71/5 23/72/5 24/73/5 44/74/5
f 46/9/3 31/12/3 25/75/3 48/76/3
f 25/77/4 31/16/4 32/15/4 26/78/4
f 45/17/1 47/79/1 26/80/1 32/18/1
f 23/81/4 25/82/4 26/83/4 24/84/4
f 50/85/3 28/86/3 27/87/3 49/88/3
f 23/89/4 27/90/4 28/91/4 25/92/4
f 43/93/5 49/94/5 27/95/5 23/96/5
f 25/97/2 28/98/2 50/99/2 48/100/2
f 47/67/1 36/101/1 34/102/1 44/68/1
f 43/71/5 44/74/5 34/103/5 33/104/5
f 46/9/3 48/76/3 35/105/3 41/45/3
f 35/106/6 36/107/6 42/49/6 41/48/6
f 45/17/1 42/52/1 36/108/1 47/79/1
f 33/109/6 34/110/6 36/111/6 35/112/6
f 50/85/3 49/88/3 37/113/3 38/114/3
f 33/115/6 35/116/6 38/117/6 37/118/6
f 43/93/5 33/119/5 37/120/5 49/94/5
f 35/121/2 48/100/2 50/99/2 38/122/2
l 31 7
l 7 8
l 32 8
l 41 15
l 15 16
l 42 16
l 31 29
l 29 30
l 32 30
l 41 39
l 39 40
l 42 40
