# Blender v2.78 (sub 0) OBJ File: ''
# www.blender.org
mtllib name_yxa.mtl
o Text
v 1.056645 0.180000 -0.639216
v 1.216122 0.180000 -0.639216
v 1.226111 0.180000 -0.594629
v 1.236468 0.180000 -0.548306
v 1.247195 0.180000 -0.500245
v 1.258291 0.180000 -0.450448
v 1.269756 0.180000 -0.398914
v 1.281590 0.180000 -0.345643
v 1.293794 0.180000 -0.290635
v 1.306367 0.180000 -0.233890
v 1.319308 0.180000 -0.175408
v 1.332619 0.180000 -0.115190
v 1.346299 0.180000 -0.053235
v 1.360349 0.180000 0.010458
v 1.253595 0.180000 0.010458
v 1.231373 0.180000 -0.140305
v 1.067538 0.180000 -0.146405
v 1.044880 0.180000 0.030501
v 0.941177 0.180000 0.032244
v 0.950166 0.180000 -0.015290
v 0.959271 0.180000 -0.064355
v 0.968491 0.180000 -0.114951
v 0.977826 0.180000 -0.167078
v 0.987276 0.180000 -0.220737
v 0.996841 0.180000 -0.275926
v 1.006521 0.180000 -0.332646
v 1.016316 0.180000 -0.390898
v 1.026226 0.180000 -0.450681
v 1.036250 0.180000 -0.511995
v 1.046390 0.180000 -0.574840
v 1.134641 0.180000 -0.524619
v 1.074074 0.180000 -0.253159
v 1.224837 0.180000 -0.249673
v 1.217753 0.180000 -0.278876
v 1.210591 0.180000 -0.306935
v 1.203350 0.180000 -0.333851
v 1.196030 0.180000 -0.359622
v 1.188632 0.180000 -0.384250
v 1.181154 0.180000 -0.407734
v 1.173599 0.180000 -0.430074
v 1.165964 0.180000 -0.451271
v 1.158251 0.180000 -0.471324
v 1.150460 0.180000 -0.490232
v 1.142589 0.180000 -0.507997
v 0.611329 0.180000 -0.282353
v 0.483224 0.180000 -0.581264
v 0.591285 0.180000 -0.600436
v 0.687146 0.180000 -0.347277
v 0.779085 0.180000 -0.602614
v 0.893246 0.180000 -0.592157
v 0.763834 0.180000 -0.281917
v 0.910675 0.180000 0.036166
v 0.810022 0.180000 0.048366
v 0.687582 0.180000 -0.213508
v 0.591285 0.180000 0.014815
v 0.494118 0.180000 0.002614
v 0.172113 0.180000 -0.245752
v 0.015251 0.180000 -0.563834
v 0.116340 0.180000 -0.583007
v 0.222658 0.180000 -0.344662
v 0.356427 0.180000 -0.595207
v 0.452723 0.180000 -0.570370
v 0.265359 0.180000 -0.244444
v 0.265184 0.180000 -0.219036
v 0.265093 0.180000 -0.194227
v 0.265087 0.180000 -0.170016
v 0.265166 0.180000 -0.146405
v 0.265329 0.180000 -0.123393
v 0.265577 0.180000 -0.100980
v 0.265910 0.180000 -0.079167
v 0.266328 0.180000 -0.057952
v 0.266830 0.180000 -0.037337
v 0.267417 0.180000 -0.017320
v 0.268089 0.180000 0.002097
v 0.268845 0.180000 0.020915
v 0.163399 0.180000 0.023965
v 0.164990 0.180000 -0.004602
v 0.166425 0.180000 -0.032062
v 0.167702 0.180000 -0.058415
v 0.168821 0.180000 -0.083660
v 0.169783 0.180000 -0.107798
v 0.170588 0.180000 -0.130828
v 0.171236 0.180000 -0.152751
v 0.171726 0.180000 -0.173566
v 0.172059 0.180000 -0.193273
v 0.172234 0.180000 -0.211874
v 0.172252 0.180000 -0.229366
v 1.056645 -0.180000 -0.639216
v 1.216122 -0.180000 -0.639216
v 1.226111 -0.180000 -0.594629
v 1.236468 -0.180000 -0.548306
v 1.247195 -0.180000 -0.500245
v 1.258291 -0.180000 -0.450448
v 1.269756 -0.180000 -0.398914
v 1.281590 -0.180000 -0.345643
v 1.293794 -0.180000 -0.290635
v 1.306367 -0.180000 -0.233890
v 1.319308 -0.180000 -0.175408
v 1.332619 -0.180000 -0.115190
v 1.346299 -0.180000 -0.053235
v 1.360349 -0.180000 0.010458
v 1.253595 -0.180000 0.010458
v 1.231373 -0.180000 -0.140305
v 1.067538 -0.180000 -0.146405
v 1.044880 -0.180000 0.030501
v 0.941177 -0.180000 0.032244
v 0.950166 -0.180000 -0.015290
v 0.959271 -0.180000 -0.064355
v 0.968491 -0.180000 -0.114951
v 0.977826 -0.180000 -0.167078
v 0.987276 -0.180000 -0.220737
v 0.996841 -0.180000 -0.275926
v 1.006521 -0.180000 -0.332646
v 1.016316 -0.180000 -0.390898
v 1.026226 -0.180000 -0.450681
v 1.036250 -0.180000 -0.511995
v 1.046390 -0.180000 -0.574840
v 1.134641 -0.180000 -0.524619
v 1.074074 -0.180000 -0.253159
v 1.224837 -0.180000 -0.249673
v 1.217753 -0.180000 -0.278876
v 1.210591 -0.180000 -0.306935
v 1.203350 -0.180000 -0.333851
v 1.196030 -0.180000 -0.359622
v 1.188632 -0.180000 -0.384250
v 1.181154 -0.180000 -0.407734
v 1.173599 -0.180000 -0.430074
v 1.165964 -0.180000 -0.451271
v 1.158251 -0.180000 -0.471324
v 1.150460 -0.180000 -0.490232
v 1.142589 -0.180000 -0.507997
v 0.611329 -0.180000 -0.282353
v 0.483224 -0.180000 -0.581264
v 0.591285 -0.180000 -0.600436
v 0.687146 -0.180000 -0.347277
v 0.779085 -0.180000 -0.602614
v 0.893246 -0.180000 -0.592157
v 0.763834 -0.180000 -0.281917
v 0.910675 -0.180000 0.036166
v 0.810022 -0.180000 0.048366
v 0.687582 -0.180000 -0.213508
v 0.591285 -0.180000 0.014815
v 0.494118 -0.180000 0.002614
v 0.172113 -0.180000 -0.245752
v 0.015251 -0.180000 -0.563834
v 0.116340 -0.180000 -0.583007
v 0.222658 -0.180000 -0.344662
v 0.356427 -0.180000 -0.595207
v 0.452723 -0.180000 -0.570370
v 0.265359 -0.180000 -0.244444
v 0.265184 -0.180000 -0.219036
v 0.265093 -0.180000 -0.194227
v 0.265087 -0.180000 -0.170016
v 0.265166 -0.180000 -0.146405
v 0.265329 -0.180000 -0.123393
v 0.265577 -0.180000 -0.100980
v 0.265910 -0.180000 -0.079167
v 0.266328 -0.180000 -0.057952
v 0.266830 -0.180000 -0.037337
v 0.267417 -0.180000 -0.017320
v 0.268089 -0.180000 0.002097
v 0.268845 -0.180000 0.020915
v 0.163399 -0.180000 0.023965
v 0.164990 -0.180000 -0.004602
v 0.166425 -0.180000 -0.032062
v 0.167702 -0.180000 -0.058415
v 0.168821 -0.180000 -0.083660
v 0.169783 -0.180000 -0.107798
v 0.170588 -0.180000 -0.130828
v 0.171236 -0.180000 -0.152751
v 0.171726 -0.180000 -0.173566
v 0.172059 -0.180000 -0.193273
v 0.172234 -0.180000 -0.211874
v 0.172252 -0.180000 -0.229366
v 0.172113 -0.180000 -0.245752
v 0.172113 0.180000 -0.245752
v 0.015251 -0.180000 -0.563834
v 0.015251 0.180000 -0.563834
v 0.116340 -0.180000 -0.583007
v 0.116340 0.180000 -0.583007
v 0.222658 -0.180000 -0.344662
v 0.222658 0.180000 -0.344662
v 0.356427 -0.180000 -0.595207
v 0.356427 0.180000 -0.595207
v 0.452723 -0.180000 -0.570370
v 0.452723 0.180000 -0.570370
v 0.265359 -0.180000 -0.244444
v 0.265359 0.180000 -0.244444
v 0.265184 -0.180000 -0.219036
v 0.265184 0.180000 -0.219036
v 0.265093 -0.180000 -0.194227
v 0.265093 0.180000 -0.194227
v 0.265087 -0.180000 -0.170016
v 0.265087 0.180000 -0.170016
v 0.265166 -0.180000 -0.146405
v 0.265166 0.180000 -0.146405
v 0.265329 -0.180000 -0.123393
v 0.265329 0.180000 -0.123393
v 0.265577 -0.180000 -0.100980
v 0.265577 0.180000 -0.100980
v 0.265910 -0.180000 -0.079167
v 0.265910 0.180000 -0.079167
v 0.266328 -0.180000 -0.057952
v 0.266328 0.180000 -0.057952
v 0.266830 -0.180000 -0.037337
v 0.266830 0.180000 -0.037337
v 0.267417 -0.180000 -0.017320
v 0.267417 0.180000 -0.017320
v 0.268089 -0.180000 0.002097
v 0.268089 0.180000 0.002097
v 0.268845 -0.180000 0.020915
v 0.268845 0.180000 0.020915
v 0.163399 -0.180000 0.023965
v 0.163399 0.180000 0.023965
v 0.164990 -0.180000 -0.004602
v 0.164990 0.180000 -0.004602
v 0.166425 -0.180000 -0.032062
v 0.166425 0.180000 -0.032062
v 0.167702 -0.180000 -0.058415
v 0.167702 0.180000 -0.058415
v 0.168821 -0.180000 -0.083660
v 0.168821 0.180000 -0.083660
v 0.169783 -0.180000 -0.107798
v 0.169783 0.180000 -0.107798
v 0.170588 -0.180000 -0.130828
v 0.170588 0.180000 -0.130828
v 0.171236 -0.180000 -0.152751
v 0.171236 0.180000 -0.152751
v 0.171726 -0.180000 -0.173566
v 0.171726 0.180000 -0.173566
v 0.172059 -0.180000 -0.193273
v 0.172059 0.180000 -0.193273
v 0.172234 -0.180000 -0.211874
v 0.172234 0.180000 -0.211874
v 0.172252 -0.180000 -0.229366
v 0.172252 0.180000 -0.229366
v 0.611329 -0.180000 -0.282353
v 0.611329 0.180000 -0.282353
v 0.483224 -0.180000 -0.581264
v 0.483224 0.180000 -0.581264
v 0.591285 -0.180000 -0.600436
v 0.591285 0.180000 -0.600436
v 0.687146 -0.180000 -0.347277
v 0.687146 0.180000 -0.347277
v 0.779085 -0.180000 -0.602614
v 0.779085 0.180000 -0.602614
v 0.893246 -0.180000 -0.592157
v 0.893246 0.180000 -0.592157
v 0.763834 -0.180000 -0.281917
v 0.763834 0.180000 -0.281917
v 0.910675 -0.180000 0.036166
v 0.910675 0.180000 0.036166
v 0.810022 -0.180000 0.048366
v 0.810022 0.180000 0.048366
v 0.687582 -0.180000 -0.213508
v 0.687582 0.180000 -0.213508
v 0.591285 -0.180000 0.014815
v 0.591285 0.180000 0.014815
v 0.494118 -0.180000 0.002614
v 0.494118 0.180000 0.002614
v 1.056645 -0.180000 -0.639216
v 1.056645 0.180000 -0.639216
v 1.216122 -0.180000 -0.639216
v 1.216122 0.180000 -0.639216
v 1.226111 -0.180000 -0.594629
v 1.226111 0.180000 -0.594629
v 1.236468 -0.180000 -0.548306
v 1.236468 0.180000 -0.548306
v 1.247195 -0.180000 -0.500245
v 1.247195 0.180000 -0.500245
v 1.258291 -0.180000 -0.450448
v 1.258291 0.180000 -0.450448
v 1.269756 -0.180000 -0.398914
v 1.269756 0.180000 -0.398914
v 1.281590 -0.180000 -0.345643
v 1.281590 0.180000 -0.345643
v 1.293794 -0.180000 -0.290635
v 1.293794 0.180000 -0.290635
v 1.306367 -0.180000 -0.233890
v 1.306367 0.180000 -0.233890
v 1.319308 -0.180000 -0.175408
v 1.319308 0.180000 -0.175408
v 1.332619 -0.180000 -0.115190
v 1.332619 0.180000 -0.115190
v 1.346299 -0.180000 -0.053235
v 1.346299 0.180000 -0.053235
v 1.360349 -0.180000 0.010458
v 1.360349 0.180000 0.010458
v 1.253595 -0.180000 0.010458
v 1.253595 0.180000 0.010458
v 1.231373 -0.180000 -0.140305
v 1.231373 0.180000 -0.140305
v 1.067538 -0.180000 -0.146405
v 1.067538 0.180000 -0.146405
v 1.044880 -0.180000 0.030501
v 1.044880 0.180000 0.030501
v 0.941177 -0.180000 0.032244
v 0.941177 0.180000 0.032244
v 0.950166 -0.180000 -0.015290
v 0.950166 0.180000 -0.015290
v 0.959271 -0.180000 -0.064355
v 0.959271 0.180000 -0.064355
v 0.968491 -0.180000 -0.114951
v 0.968491 0.180000 -0.114951
v 0.977826 -0.180000 -0.167078
v 0.977826 0.180000 -0.167078
v 0.987276 -0.180000 -0.220737
v 0.987276 0.180000 -0.220737
v 0.996841 -0.180000 -0.275926
v 0.996841 0.180000 -0.275926
v 1.006521 -0.180000 -0.332646
v 1.006521 0.180000 -0.332646
v 1.016316 -0.180000 -0.390898
v 1.016316 0.180000 -0.390898
v 1.026226 -0.180000 -0.450681
v 1.026226 0.180000 -0.450681
v 1.036250 -0.180000 -0.511995
v 1.036250 0.180000 -0.511995
v 1.046390 -0.180000 -0.574840
v 1.046390 0.180000 -0.574840
v 1.134641 -0.180000 -0.524619
v 1.134641 0.180000 -0.524619
v 1.074074 -0.180000 -0.253159
v 1.074074 0.180000 -0.253159
v 1.224837 -0.180000 -0.249673
v 1.224837 0.180000 -0.249673
v 1.217753 -0.180000 -0.278876
v 1.217753 0.180000 -0.278876
v 1.210591 -0.180000 -0.306935
v 1.210591 0.180000 -0.306935
v 1.203350 -0.180000 -0.333851
v 1.203350 0.180000 -0.333851
v 1.196030 -0.180000 -0.359622
v 1.196030 0.180000 -0.359622
v 1.188632 -0.180000 -0.384250
v 1.188632 0.180000 -0.384250
v 1.181154 -0.180000 -0.407734
v 1.181154 0.180000 -0.407734
v 1.173599 -0.180000 -0.430074
v 1.173599 0.180000 -0.430074
v 1.165964 -0.180000 -0.451271
v 1.165964 0.180000 -0.451271
v 1.158251 -0.180000 -0.471324
v 1.158251 0.180000 -0.471324
v 1.150460 -0.180000 -0.490232
v 1.150460 0.180000 -0.490232
v 1.142589 -0.180000 -0.507997
v 1.142589 0.180000 -0.507997
vn 0.0000 1.0000 0.0000
vn 0.0000 -1.0000 0.0000
vn -0.9729 0.0000 0.2312
vn -0.8949 0.0000 -0.4463
vn 0.4635 0.0000 -0.8861
vn 0.0354 0.0000 -0.9994
vn -0.4022 0.0000 -0.9155
vn 0.9217 0.0000 -0.3879
vn 0.9653 0.0000 0.2612
vn 1.0000 0.0000 0.0053
vn 1.0000 0.0000 0.0020
vn 1.0000 0.0000 -0.0015
vn 1.0000 0.0000 -0.0052
vn 0.9999 0.0000 -0.0091
vn 0.9999 0.0000 -0.0132
vn 0.9998 0.0000 -0.0175
vn 0.9998 0.0000 -0.0220
vn 0.9996 0.0000 -0.0268
vn 0.9995 0.0000 -0.0319
vn 0.9993 0.0000 -0.0374
vn 0.7311 0.0000 0.6822
vn -0.7165 0.0000 0.6976
vn -0.9985 0.0000 -0.0539
vn -0.9987 0.0000 -0.0503
vn -0.9989 0.0000 -0.0463
vn -0.9991 0.0000 -0.0421
vn -0.9993 0.0000 -0.0374
vn -0.9995 0.0000 -0.0322
vn -0.9996 0.0000 -0.0265
vn -0.9998 0.0000 -0.0202
vn -0.9999 0.0000 -0.0132
vn -1.0000 0.0000 -0.0052
vn -1.0000 0.0000 0.0037
vn -1.0000 0.0000 0.0073
vn -0.8799 0.0000 -0.4751
vn 0.4939 0.0000 -0.8695
vn -0.0081 0.0000 -0.9999
vn -0.5370 0.0000 -0.8435
vn 0.8566 0.0000 -0.5159
vn 0.9998 0.0000 -0.0186
vn 0.8733 0.0000 0.4871
vn -0.4850 0.0000 0.8745
vn 0.0191 0.0000 0.9998
vn 0.4998 0.0000 0.8661
vn -0.8639 0.0000 0.5036
vn -0.6491 0.0000 -0.7607
vn 0.6250 0.0000 -0.7806
vn 0.9758 0.0000 -0.2184
vn 0.9759 0.0000 -0.2180
vn 0.9760 0.0000 -0.2177
vn 0.9761 0.0000 -0.2173
vn 0.9762 0.0000 -0.2170
vn 0.9762 0.0000 -0.2167
vn 0.9763 0.0000 -0.2164
vn 0.9763 0.0000 -0.2162
vn 0.9764 0.0000 -0.2159
vn 0.9764 0.0000 -0.2157
vn 0.9765 0.0000 -0.2155
vn 0.7795 0.0000 0.6263
vn -0.6535 0.0000 0.7569
vn -0.6675 0.0000 0.7446
vn 0.6466 0.0000 0.7628
vn 0.6669 0.0000 0.7451
vn -0.7646 0.0000 0.6445
vn -0.9829 0.0000 -0.1841
vn -0.9835 0.0000 -0.1809
vn -0.9841 0.0000 -0.1778
vn -0.9846 0.0000 -0.1748
vn -0.9851 0.0000 -0.1721
vn -0.9855 0.0000 -0.1695
vn -0.9859 0.0000 -0.1670
vn -0.9863 0.0000 -0.1646
vn -0.9867 0.0000 -0.1624
vn -0.9871 0.0000 -0.1603
vn -0.9874 0.0000 -0.1583
vn 0.1130 0.0000 0.9936
vn 0.7875 0.0000 -0.6163
vn -0.7788 0.0000 -0.6272
vn -0.9704 0.0000 0.2415
vn -0.9673 0.0000 0.2535
vn -0.9638 0.0000 0.2665
vn -0.9598 0.0000 0.2805
vn -0.9553 0.0000 0.2955
vn -0.9501 0.0000 0.3119
vn -0.9441 0.0000 0.3296
vn -0.9371 0.0000 0.3489
vn -0.9290 0.0000 0.3700
vn -0.9195 0.0000 0.3930
vn -0.9083 0.0000 0.4183
usemtl None
s off
f 30//1 2//1 1//1
f 30//1 3//1 2//1
f 30//1 4//1 3//1
f 29//1 4//1 30//1
f 29//1 31//1 4//1
f 31//1 5//1 4//1
f 29//1 32//1 31//1
f 44//1 5//1 31//1
f 28//1 32//1 29//1
f 43//1 5//1 44//1
f 43//1 6//1 5//1
f 42//1 6//1 43//1
f 41//1 6//1 42//1
f 40//1 6//1 41//1
f 27//1 32//1 28//1
f 40//1 7//1 6//1
f 39//1 7//1 40//1
f 38//1 7//1 39//1
f 38//1 8//1 7//1
f 26//1 32//1 27//1
f 37//1 8//1 38//1
f 36//1 8//1 37//1
f 36//1 9//1 8//1
f 35//1 9//1 36//1
f 25//1 32//1 26//1
f 34//1 9//1 35//1
f 34//1 10//1 9//1
f 33//1 10//1 34//1
f 24//1 32//1 25//1
f 24//1 33//1 32//1
f 24//1 10//1 33//1
f 24//1 11//1 10//1
f 23//1 11//1 24//1
f 23//1 16//1 11//1
f 16//1 12//1 11//1
f 22//1 17//1 23//1
f 17//1 16//1 23//1
f 22//1 18//1 17//1
f 15//1 12//1 16//1
f 15//1 13//1 12//1
f 21//1 18//1 22//1
f 20//1 18//1 21//1
f 15//1 14//1 13//1
f 19//1 18//1 20//1
f 48//1 50//1 49//1
f 46//1 48//1 47//1
f 48//1 51//1 50//1
f 45//1 48//1 46//1
f 45//1 51//1 48//1
f 56//1 54//1 45//1
f 54//1 51//1 45//1
f 54//1 52//1 51//1
f 56//1 55//1 54//1
f 53//1 52//1 54//1
f 60//1 62//1 61//1
f 58//1 60//1 59//1
f 60//1 63//1 62//1
f 57//1 60//1 58//1
f 57//1 63//1 60//1
f 87//1 63//1 57//1
f 87//1 64//1 63//1
f 86//1 64//1 87//1
f 86//1 65//1 64//1
f 85//1 65//1 86//1
f 85//1 66//1 65//1
f 84//1 66//1 85//1
f 83//1 66//1 84//1
f 83//1 67//1 66//1
f 82//1 67//1 83//1
f 82//1 68//1 67//1
f 81//1 68//1 82//1
f 81//1 69//1 68//1
f 80//1 69//1 81//1
f 80//1 70//1 69//1
f 79//1 70//1 80//1
f 79//1 71//1 70//1
f 78//1 71//1 79//1
f 78//1 72//1 71//1
f 78//1 73//1 72//1
f 77//1 73//1 78//1
f 77//1 74//1 73//1
f 76//1 74//1 77//1
f 76//1 75//1 74//1
f 89//2 117//2 88//2
f 90//2 117//2 89//2
f 91//2 117//2 90//2
f 91//2 116//2 117//2
f 118//2 116//2 91//2
f 92//2 118//2 91//2
f 119//2 116//2 118//2
f 92//2 131//2 118//2
f 119//2 115//2 116//2
f 92//2 130//2 131//2
f 93//2 130//2 92//2
f 93//2 129//2 130//2
f 93//2 128//2 129//2
f 93//2 127//2 128//2
f 119//2 114//2 115//2
f 94//2 127//2 93//2
f 94//2 126//2 127//2
f 94//2 125//2 126//2
f 95//2 125//2 94//2
f 119//2 113//2 114//2
f 95//2 124//2 125//2
f 95//2 123//2 124//2
f 96//2 123//2 95//2
f 96//2 122//2 123//2
f 119//2 112//2 113//2
f 96//2 121//2 122//2
f 97//2 121//2 96//2
f 97//2 120//2 121//2
f 119//2 111//2 112//2
f 120//2 111//2 119//2
f 97//2 111//2 120//2
f 98//2 111//2 97//2
f 98//2 110//2 111//2
f 103//2 110//2 98//2
f 99//2 103//2 98//2
f 104//2 109//2 110//2
f 103//2 104//2 110//2
f 105//2 109//2 104//2
f 99//2 102//2 103//2
f 100//2 102//2 99//2
f 105//2 108//2 109//2
f 105//2 107//2 108//2
f 101//2 102//2 100//2
f 105//2 106//2 107//2
f 137//2 135//2 136//2
f 135//2 133//2 134//2
f 138//2 135//2 137//2
f 135//2 132//2 133//2
f 138//2 132//2 135//2
f 141//2 143//2 132//2
f 138//2 141//2 132//2
f 139//2 141//2 138//2
f 142//2 143//2 141//2
f 139//2 140//2 141//2
f 149//2 147//2 148//2
f 147//2 145//2 146//2
f 150//2 147//2 149//2
f 147//2 144//2 145//2
f 150//2 144//2 147//2
f 150//2 174//2 144//2
f 151//2 174//2 150//2
f 151//2 173//2 174//2
f 152//2 173//2 151//2
f 152//2 172//2 173//2
f 153//2 172//2 152//2
f 153//2 171//2 172//2
f 153//2 170//2 171//2
f 154//2 170//2 153//2
f 154//2 169//2 170//2
f 155//2 169//2 154//2
f 155//2 168//2 169//2
f 156//2 168//2 155//2
f 156//2 167//2 168//2
f 157//2 167//2 156//2
f 157//2 166//2 167//2
f 158//2 166//2 157//2
f 158//2 165//2 166//2
f 159//2 165//2 158//2
f 160//2 165//2 159//2
f 160//2 164//2 165//2
f 161//2 164//2 160//2
f 161//2 163//2 164//2
f 162//2 163//2 161//2
s 1
f 176//3 178//4 177//4 175//3
f 178//4 180//5 179//5 177//4
f 180//5 182//6 181//6 179//5
f 182//6 184//7 183//7 181//6
f 184//7 186//8 185//8 183//7
f 186//8 188//9 187//9 185//8
f 188//9 190//10 189//10 187//9
f 190//10 192//11 191//11 189//10
f 192//11 194//12 193//12 191//11
f 194//12 196//13 195//13 193//12
f 196//13 198//14 197//14 195//13
f 198//14 200//15 199//15 197//14
f 200//15 202//16 201//16 199//15
f 202//16 204//17 203//17 201//16
f 204//17 206//18 205//18 203//17
f 206//18 208//19 207//19 205//18
f 208//19 210//20 209//20 207//19
f 210//20 212//21 211//21 209//20
f 212//21 214//22 213//22 211//21
f 214//22 216//23 215//23 213//22
f 216//23 218//24 217//24 215//23
f 218//24 220//25 219//25 217//24
f 220//25 222//26 221//26 219//25
f 222//26 224//27 223//27 221//26
f 224//27 226//28 225//28 223//27
f 226//28 228//29 227//29 225//28
f 228//29 230//30 229//30 227//29
f 230//30 232//31 231//31 229//30
f 232//31 234//32 233//32 231//31
f 234//32 236//33 235//33 233//32
f 236//33 176//3 175//3 235//33
f 238//34 240//35 239//35 237//34
f 240//35 242//36 241//36 239//35
f 242//36 244//37 243//37 241//36
f 244//37 246//38 245//38 243//37
f 246//38 248//39 247//39 245//38
f 248//39 250//40 249//40 247//39
f 250//40 252//41 251//41 249//40
f 252//41 254//42 253//42 251//41
f 254//42 256//43 255//43 253//42
f 256//43 258//44 257//44 255//43
f 258//44 260//45 259//45 257//44
f 260//45 238//34 237//34 259//45
f 262//46 264//47 263//47 261//46
f 264//47 266//48 265//48 263//47
f 266//48 268//49 267//49 265//48
f 268//49 270//50 269//50 267//49
f 270//50 272//51 271//51 269//50
f 272//51 274//52 273//52 271//51
f 274//52 276//53 275//53 273//52
f 276//53 278//54 277//54 275//53
f 278//54 280//55 279//55 277//54
f 280//55 282//56 281//56 279//55
f 282//56 284//57 283//57 281//56
f 284//57 286//58 285//58 283//57
f 286//58 288//59 287//59 285//58
f 288//59 290//60 289//60 287//59
f 290//60 292//61 291//61 289//60
f 292//61 294//62 293//62 291//61
f 294//62 296//63 295//63 293//62
f 296//63 298//64 297//64 295//63
f 298//64 300//65 299//65 297//64
f 300//65 302//66 301//66 299//65
f 302//66 304//67 303//67 301//66
f 304//67 306//68 305//68 303//67
f 306//68 308//69 307//69 305//68
f 308//69 310//70 309//70 307//69
f 310//70 312//71 311//71 309//70
f 312//71 314//72 313//72 311//71
f 314//72 316//73 315//73 313//72
f 316//73 318//74 317//74 315//73
f 318//74 320//75 319//75 317//74
f 320//75 262//46 261//46 319//75
f 322//76 324//77 323//77 321//76
f 324//77 326//78 325//78 323//77
f 326//78 328//79 327//79 325//78
f 328//79 330//80 329//80 327//79
f 330//80 332//81 331//81 329//80
f 332//81 334//82 333//82 331//81
f 334//82 336//83 335//83 333//82
f 336//83 338//84 337//84 335//83
f 338//84 340//85 339//85 337//84
f 340//85 342//86 341//86 339//85
f 342//86 344//87 343//87 341//86
f 344//87 346//88 345//88 343//87
f 346//88 348//89 347//89 345//88
f 348//89 322//76 321//76 347//89
