# Blender v2.78 (sub 0) OBJ File: ''
# www.blender.org
mtllib target_guide.mtl
o Plane
v -1.000000 0.000000 1.000000
v 1.000000 0.000000 1.000000
v -1.000000 0.000000 -1.000000
v 1.000000 0.000000 -1.000000
v -0.364979 0.000000 0.000000
v 0.000000 0.000000 0.364979
v 0.364979 0.000000 0.000000
v 0.000000 0.000000 -0.364979
v 0.000000 0.000000 0.000000
vt 0.5000 0.5000
vt 0.9999 0.5000
vt 0.9999 0.9999
vt 0.5000 0.9999
vt 0.0001 0.5000
vt 0.0001 0.9999
vt 0.0001 0.0001
vt 0.5000 0.0001
vt 0.9999 0.0001
vn 0.0000 1.0000 0.0000
usemtl Material.001
s off
f 9/1/1 7/2/1 4/3/1 8/4/1
f 5/5/1 9/1/1 8/4/1 3/6/1
f 1/7/1 6/8/1 9/1/1 5/5/1
f 6/8/1 2/9/1 7/2/1 9/1/1
